<svg width="35" height="31" viewBox="0 0 35 31" fill="none" xmlns="http://www.w3.org/2000/svg">
<circle opacity="0.2" cx="10.7678" cy="20.4776" r="10.51" fill="#427EC0"/>
<path d="M32.145 13.4724V1.18396H6.1743V13.4724H5.51562V1.04894C5.51562 0.570576 5.58149 0.5047 6.05903 0.5047H32.2504C32.7247 0.5047 32.7963 0.575514 32.7963 1.04647V13.4724H32.145Z" fill="#427EC0"/>
<path d="M31.9943 22.8569H30.1179C29.7885 22.8569 29.7153 22.7951 29.6552 22.4691C29.5053 21.6622 29.3568 20.8553 29.2097 20.0485L28.9883 18.8382C28.9833 18.8126 28.9776 18.7879 28.966 18.7418C28.9594 18.7155 28.9504 18.6809 28.9397 18.634L28.8343 18.1959L28.6317 18.5986C28.5494 18.7632 28.4671 18.9279 28.3847 19.0802C28.2085 19.4268 28.0422 19.7537 27.8907 20.0839C27.8552 20.1837 27.7872 20.2688 27.6977 20.3255C27.6081 20.3822 27.5022 20.4073 27.3967 20.3967H27.3885C26.9661 20.3967 26.5141 20.3918 25.9221 20.3918H23.7213C22.921 20.3918 22.3093 19.8467 22.2681 19.1008C22.2253 18.3326 22.7358 17.7415 23.5385 17.6295C23.7905 17.5949 24.0416 17.557 24.2927 17.5192C24.6937 17.4591 25.1087 17.3973 25.5162 17.3471C25.6255 17.3363 25.7305 17.2986 25.8217 17.2374C25.9129 17.1762 25.9876 17.0934 26.039 16.9963C26.165 16.793 26.286 16.5904 26.4145 16.3871C26.8731 15.6419 27.3465 14.8721 27.8397 14.1352C28.2876 13.4658 28.91 13.1258 29.698 13.1258C29.808 13.1259 29.918 13.1323 30.0273 13.1447C30.863 13.2394 31.4805 13.6947 31.8625 14.4967C31.9325 14.6416 31.9926 14.798 32.0511 14.9495L32.0914 15.0541C32.2561 15.4817 32.4241 15.9084 32.5953 16.3344C33.0004 17.3578 33.4187 18.4158 33.7999 19.4631C34.1045 20.3029 34.2527 21.2374 34.2651 22.4057C34.2651 22.5794 34.2371 22.6939 34.1745 22.7581C34.1119 22.8223 33.9925 22.8544 33.8147 22.8544L31.9943 22.8569ZM28.9915 16.779C29.011 16.7778 29.0305 16.7778 29.05 16.779C29.1982 16.8012 29.297 16.8728 29.353 17.1627C29.6354 18.7443 29.9227 20.3119 30.2084 21.8228C30.2356 21.9669 30.3978 22.1818 30.5658 22.185C31.1685 22.1941 31.772 22.1958 32.2841 22.1958H33.6014L33.5924 22.0228C33.5476 20.985 33.3323 19.9617 32.9551 18.9938C32.6859 18.3055 32.4059 17.6081 32.1318 16.9354C31.8724 16.2907 31.6057 15.6238 31.3471 14.9668C31.068 14.2546 30.6061 13.8709 29.9474 13.7943C29.872 13.7855 29.7961 13.7811 29.7202 13.7812C29.1093 13.7812 28.6103 14.0916 28.2382 14.705C27.9088 15.2492 27.5614 15.7984 27.2279 16.3303C26.9604 16.7551 26.6845 17.1948 26.4161 17.6295C26.3717 17.7165 26.3058 17.7909 26.2247 17.8454C26.1436 17.9 26.05 17.9331 25.9526 17.9415C25.1828 18.0387 24.4162 18.1556 23.634 18.2775C23.1763 18.3483 22.8996 18.6537 22.9293 19.0547C22.9605 19.4713 23.2808 19.7298 23.7666 19.7307H25.466C25.8777 19.7307 26.426 19.7307 26.9686 19.7364H26.9785C27.0878 19.7434 27.1965 19.7152 27.2887 19.656C27.3808 19.5967 27.4516 19.5095 27.4906 19.4071C27.6989 18.9789 27.9163 18.545 28.1262 18.126C28.3032 17.7736 28.4802 17.4204 28.654 17.0663C28.7824 16.8144 28.8919 16.779 28.9915 16.779Z" fill="#427EC0"/>
<path d="M6.27986 22.8552H4.47756C4.30219 22.8552 4.1861 22.824 4.1227 22.7597C4.05931 22.6955 4.02967 22.5786 4.03131 22.4024C4.04881 21.0654 4.31691 19.7436 4.82172 18.5055C5.44335 16.9593 5.91595 15.7794 6.35396 14.6794C6.71871 13.7647 7.36421 13.2476 8.27154 13.1447C8.37786 13.1325 8.48479 13.1261 8.59182 13.1258C9.41516 13.1258 10.087 13.5235 10.5761 14.3073L11.0824 15.1175C11.4678 15.7325 11.8663 16.3681 12.2532 16.9963C12.3048 17.0935 12.3799 17.1762 12.4717 17.2369C12.5634 17.2976 12.6689 17.3343 12.7785 17.3438C13.4034 17.4179 14.0366 17.515 14.65 17.6089L14.8146 17.6344C15.5606 17.748 16.0694 18.3656 16.0233 19.1016C15.9997 19.4548 15.8412 19.7853 15.5807 20.0248C15.3202 20.2644 14.9775 20.3946 14.6236 20.3885C14.2076 20.3885 13.7918 20.3885 13.3763 20.3885H12.0457C11.6522 20.3885 11.2589 20.3885 10.8659 20.3885C10.6395 20.3885 10.5143 20.3062 10.4139 20.0979C10.2492 19.7578 10.0788 19.417 9.91163 19.0876C9.84082 18.9482 9.77029 18.8091 9.70003 18.6702L9.64734 18.5656L9.34682 18.6043L9.1344 19.785C8.96973 20.6802 8.80506 21.5755 8.64039 22.4707C8.58193 22.7894 8.50289 22.8544 8.17355 22.8544L6.27986 22.8552ZM6.34161 22.1966C6.8562 22.1966 7.25223 22.1966 7.62603 22.2032H7.6392C7.91502 22.2032 8.05088 22.083 8.10357 21.803C8.25342 20.9492 8.41232 20.0814 8.56629 19.2424C8.69034 18.5634 8.81357 17.8836 8.93597 17.203C8.98784 16.9165 9.06442 16.8103 9.23979 16.7831C9.26132 16.7799 9.28305 16.7782 9.30483 16.7781C9.44891 16.7781 9.53948 16.8605 9.66463 17.119C9.84082 17.478 10.0203 17.8353 10.199 18.1894C10.3982 18.5862 10.6032 18.9962 10.8008 19.4013C10.8832 19.566 11.005 19.7356 11.3089 19.7356H11.3179C11.8531 19.7298 12.3767 19.729 12.818 19.729H14.5471C15.0057 19.729 15.3251 19.4655 15.3605 19.0621C15.3959 18.6587 15.1226 18.3483 14.6632 18.2766C13.8859 18.1564 13.1235 18.0395 12.3446 17.9407C12.2474 17.9327 12.1538 17.9005 12.0722 17.847C11.9907 17.7935 11.9238 17.7204 11.8778 17.6344C11.5377 17.082 11.1878 16.5229 10.8494 15.982C10.575 15.5429 10.3005 15.101 10.0261 14.6564C9.66545 14.0743 9.17721 13.7795 8.5737 13.7795C8.49943 13.7797 8.42522 13.7838 8.3514 13.7919C7.69272 13.8668 7.22835 14.2497 6.95912 14.9306C6.61661 15.7984 6.26257 16.6793 5.92088 17.5315C5.74908 17.958 5.57783 18.3848 5.40712 18.8118C4.99394 19.8351 4.75543 20.9206 4.70152 22.0228L4.69245 22.1958H6.33914L6.34161 22.1966Z" fill="#427EC0"/>
<path d="M13.625 9.83757C13.6464 9.81369 13.6678 9.78981 13.69 9.76758C14.7329 8.72084 15.7786 7.67519 16.827 6.63065C16.9752 6.48244 17.0855 6.41328 17.1736 6.41328C17.2617 6.41328 17.377 6.48492 17.5309 6.63806C18.1144 7.22153 18.6962 7.80446 19.2764 8.38684L20.0915 9.20524L25.6582 3.63697H23.7719V2.96759H25.51H26.4255C26.7647 2.96759 26.8677 3.06886 26.8693 3.39573C26.8693 4.0651 26.8693 4.73366 26.8693 5.4088V6.07242H26.2222V4.12357L25.9455 4.3788L25.8253 4.48913C25.7578 4.55006 25.7043 4.59863 25.6524 4.6538L21.9745 8.33003L20.7502 9.55434C20.4439 9.86062 20.2504 10.0483 20.1302 10.0483C20.01 10.0483 19.8223 9.86474 19.5226 9.56504L17.2008 7.23745L14.1042 10.3382L13.625 9.83757Z" fill="#427EC0"/>
<path d="M23.7566 30.2404V29.7851C23.7566 29.2392 23.7566 28.6752 23.7566 28.1219C23.7588 27.9248 23.7384 27.7281 23.6956 27.5357C23.6142 27.1921 23.4206 26.8853 23.1453 26.6641C22.87 26.4428 22.5289 26.3196 22.1758 26.3139C21.0445 26.3081 20.0211 26.3048 19.047 26.3048C18.0203 26.3048 17.071 26.3048 16.1357 26.3155C15.2621 26.3213 14.5713 27.0335 14.5573 27.9367C14.5499 28.4999 14.5516 29.0507 14.5532 29.6336C14.5532 29.8312 14.5532 30.0299 14.5532 30.2297H13.8946C13.8946 30.1663 13.8946 30.1029 13.8946 30.0387C13.8946 29.7777 13.8946 29.5076 13.8946 29.2425C13.8946 29.0778 13.8946 28.9066 13.8946 28.7436C13.8816 28.333 13.9006 27.922 13.9514 27.5143C14.0374 27.0002 14.3015 26.5326 14.6973 26.1934C15.0931 25.8542 15.5955 25.6649 16.1168 25.6585C17.1624 25.6503 18.1982 25.6453 19.1969 25.6453C20.1956 25.6453 21.2116 25.6503 22.1832 25.6593C23.3161 25.6692 24.2901 26.5864 24.3996 27.7457C24.4087 27.8387 24.4087 27.9334 24.4087 28.0338V30.2404H23.7566Z" fill="#427EC0"/>
<path d="M19.1451 24.8226C18.9515 24.822 18.7584 24.8019 18.5688 24.7625C17.9536 24.6274 17.4017 24.2895 17.0017 23.803C16.6017 23.3165 16.3768 22.7097 16.363 22.0801C16.363 22.0093 16.363 21.9385 16.363 21.8784V21.8051C16.2848 20.0761 17.4803 18.9818 18.7005 18.7851C18.8472 18.7611 18.9956 18.749 19.1443 18.7488C20.6263 18.7488 21.8522 19.8883 21.9395 21.3432C21.9766 21.9516 21.9725 22.5971 21.6925 23.1941C21.4663 23.6794 21.1066 24.0902 20.6555 24.3786C20.2044 24.667 19.6805 24.821 19.1451 24.8226ZM19.1591 19.405C19.0099 19.4053 18.8612 19.4213 18.7153 19.4528C17.6343 19.685 17.0143 20.5289 17.0151 21.768V21.8644C17.0151 21.936 17.0151 22.0076 17.0151 22.0801C17.0259 22.6368 17.2542 23.1672 17.6513 23.5577C18.0483 23.9481 18.5825 24.1675 19.1393 24.1689H19.1484C19.7098 24.1716 20.2497 23.9525 20.6505 23.5594C21.0514 23.1662 21.2808 22.6308 21.2891 22.0694C21.294 21.8594 21.2981 21.6363 21.2891 21.4107C21.2585 20.8666 21.02 20.3551 20.623 19.9818C20.226 19.6086 19.7007 19.4021 19.1558 19.405H19.1591Z" fill="#427EC0"/>
<path d="M25.3702 15.3288C25.2302 14.9756 25.0977 14.6422 24.9725 14.3005C24.9459 14.2004 24.8846 14.113 24.7996 14.0539C24.7145 13.9948 24.6112 13.9678 24.5082 13.9777C22.738 13.9777 20.9689 13.9777 19.2009 13.9777C17.3961 13.9777 15.5911 13.9761 13.7858 13.9728C13.5453 13.9728 13.4078 14.0724 13.3255 14.3021C13.2498 14.5154 13.1658 14.7262 13.0785 14.9485C13.0604 14.9946 13.0415 15.0407 13.0225 15.0876L12.4141 14.8505C12.4511 14.755 12.4873 14.6595 12.5236 14.5648C12.6554 14.2007 12.8054 13.8434 12.9731 13.4944C13.0044 13.4302 13.1938 13.3363 13.3362 13.3298C13.6656 13.3182 14.0221 13.3133 14.4815 13.3133H15.122H15.7643H24.8531C25.2788 13.3133 25.301 13.3289 25.4534 13.7192C25.6123 14.1243 25.7695 14.5302 25.9317 14.9476L26.0849 15.342L25.4764 15.5791C25.4402 15.499 25.4048 15.4156 25.3702 15.3288Z" fill="#427EC0"/>
<path d="M9.76918 12.4973C9.16307 12.4932 8.58306 12.25 8.15524 11.8206C7.72741 11.3913 7.48634 10.8104 7.4844 10.2043C7.48297 9.90174 7.54162 9.60193 7.65695 9.32223C7.77228 9.04253 7.94199 8.7885 8.15624 8.57489C8.3693 8.35973 8.62299 8.18904 8.90256 8.07271C9.18213 7.95639 9.48202 7.89676 9.78482 7.89728C10.3908 7.8966 10.9725 8.13539 11.4032 8.56163C11.8339 8.98788 12.0788 9.56705 12.0844 10.173C12.0873 10.4784 12.0293 10.7813 11.9138 11.064C11.7983 11.3468 11.6276 11.6037 11.4117 11.8197C11.1976 12.0358 10.9426 12.2071 10.6616 12.3237C10.3806 12.4403 10.0792 12.4999 9.77494 12.4989L9.76918 12.4973ZM9.78894 8.55431C9.57093 8.5551 9.35524 8.59918 9.15441 8.68398C8.95357 8.76878 8.77157 8.89262 8.61896 9.04831C8.46647 9.20134 8.34589 9.38312 8.2642 9.58311C8.1825 9.7831 8.14133 9.99732 8.14308 10.2133C8.14761 10.6455 8.32185 11.0586 8.62822 11.3634C8.93459 11.6682 9.34852 11.8404 9.7807 11.8427C9.99693 11.8435 10.2112 11.8013 10.4109 11.7185C10.6106 11.6356 10.7919 11.5139 10.9441 11.3603C11.0981 11.2065 11.2202 11.0237 11.3031 10.8224C11.3861 10.6212 11.4283 10.4055 11.4274 10.1878C11.4204 9.75702 11.2458 9.34591 10.9406 9.04171C10.6355 8.7375 10.2239 8.56415 9.79305 8.55842L9.78894 8.55431Z" fill="#427EC0"/>
<path d="M28.4846 12.4973C27.8789 12.4869 27.3016 12.2385 26.8776 11.8059C26.4536 11.3733 26.2169 10.7911 26.2188 10.1853C26.2233 9.57693 26.4682 8.99498 26.9001 8.56638C27.3319 8.13777 27.9157 7.89726 28.5241 7.89728H28.5357C29.1418 7.90119 29.7218 8.14462 30.1492 8.57448C30.5766 9.00434 30.8167 9.58576 30.8171 10.1919C30.8147 10.8039 30.5701 11.39 30.1366 11.822C29.7032 12.2541 29.1163 12.4969 28.5044 12.4973H28.4846ZM28.5282 8.5543C28.0965 8.55463 27.682 8.72394 27.3735 9.02599C27.0649 9.32805 26.8869 9.73887 26.8774 10.1705C26.874 10.3879 26.9139 10.6038 26.9949 10.8055C27.0759 11.0073 27.1964 11.1908 27.3492 11.3454C27.5002 11.5008 27.6806 11.6245 27.8799 11.7093C28.0793 11.7941 28.2935 11.8384 28.5101 11.8394H28.5184C28.9551 11.8394 29.3739 11.666 29.6827 11.3571C29.9916 11.0483 30.1651 10.6295 30.1651 10.1928C30.1649 9.97826 30.1221 9.76593 30.0393 9.56806C29.9565 9.3702 29.8352 9.19074 29.6826 9.04008C29.532 8.88725 29.3526 8.76589 29.1547 8.68306C28.9568 8.60023 28.7444 8.55758 28.5299 8.5576L28.5282 8.5543Z" fill="#427EC0"/>
<path d="M10.6841 27.2942H8.96162C8.56971 27.2942 8.49972 27.2218 8.46267 26.778C8.35713 25.5573 8.58477 24.3309 9.12135 23.2294C9.36259 22.7222 9.55443 22.2068 9.7578 21.665C9.82778 21.4757 9.90023 21.2813 9.97515 21.0887L10.582 21.3283L10.4873 21.5753C10.3761 21.8643 10.2674 22.1459 10.1579 22.4266C10.0847 22.6143 10.0139 22.8062 9.94551 22.9923C9.79427 23.4266 9.62059 23.8529 9.42517 24.2693C9.09583 24.9353 9.11312 25.6014 9.12959 26.3062L9.137 26.6356H13.0569V27.2992L10.6841 27.2942Z" fill="#427EC0"/>
<path d="M25.2422 27.2887V26.644H29.1786L29.1671 26.4686C29.1576 26.2805 29.1576 26.092 29.1671 25.9038C29.1819 25.5053 29.1967 25.0936 29.0296 24.6795C28.7167 23.9056 28.4088 23.1151 28.1107 22.3478L27.7715 21.4775C27.7517 21.4281 27.7336 21.3771 27.7147 21.3219L28.3174 21.0848C28.3294 21.1069 28.3402 21.1297 28.3495 21.1531L28.5841 21.7484C28.9678 22.7249 29.3647 23.7343 29.7442 24.7305C29.7997 24.8961 29.8275 25.0697 29.8266 25.2443C29.8381 25.8025 29.8348 26.3706 29.8266 26.9017C29.8266 27.0433 29.7846 27.2821 29.5277 27.2837C28.9094 27.2837 28.2515 27.2903 27.3952 27.2903L25.2422 27.2887Z" fill="#427EC0"/>
<path d="M14.5292 2.98517H8.97656V3.60432H14.5292V2.98517Z" fill="#427EC0"/>
<path d="M12.0563 4.96564H8.98438V5.5955H12.0563V4.96564Z" fill="#427EC0"/>
</svg>
