<svg width="29" height="29" viewBox="0 0 29 29" fill="none" xmlns="http://www.w3.org/2000/svg">
<path d="M19.6892 0.656738L21.2447 0.767584C21.6027 0.793398 21.9606 0.825285 22.3269 0.854135V5.30923C22.1797 5.30923 22.0426 5.30923 21.9054 5.30923C20.8718 5.3229 19.8364 5.30923 18.8044 5.35782C17.5216 5.4216 16.809 6.03656 16.7522 7.19969C16.6919 8.41444 16.7388 9.64134 16.7388 10.9032H22.1463C21.9071 12.5871 21.6746 14.227 21.4371 15.8958H16.7271V28.6507H11.057V15.8958H6.3269V10.9229H11.052V10.5706C11.052 9.26628 11.0235 7.96043 11.0821 6.65912C11.1523 5.08906 11.6625 3.64958 12.8835 2.47886C13.8101 1.58299 14.9675 1.07279 16.2771 0.826803C16.6284 0.759992 16.9847 0.71292 17.3376 0.656738H19.6892Z" fill="#427EC0"/>
</svg>
