<svg width="28" height="28" viewBox="0 0 28 28" fill="none" xmlns="http://www.w3.org/2000/svg">
<path d="M3.26202 0C2.45088 0 1.67296 0.322224 1.0994 0.895787C0.525838 1.46935 0.203613 2.24727 0.203613 3.05841C0.203613 3.86955 0.525838 4.64747 1.0994 5.22103C1.67296 5.79459 2.45088 6.11682 3.26202 6.11682C4.07316 6.11682 4.85108 5.79459 5.42464 5.22103C5.99821 4.64747 6.32043 3.86955 6.32043 3.05841C6.32043 2.24727 5.99821 1.46935 5.42464 0.895787C4.85108 0.322224 4.07316 0 3.26202 0ZM0.38352 8.63551C0.335806 8.63551 0.290046 8.65446 0.256307 8.6882C0.222568 8.72194 0.203613 8.7677 0.203613 8.81541V27.5257C0.203613 27.625 0.284211 27.7056 0.38352 27.7056H6.14052C6.18824 27.7056 6.234 27.6866 6.26774 27.6529C6.30148 27.6192 6.32043 27.5734 6.32043 27.5257V8.81541C6.32043 8.7677 6.30148 8.72194 6.26774 8.6882C6.234 8.65446 6.18824 8.63551 6.14052 8.63551H0.38352ZM9.73865 8.63551C9.69094 8.63551 9.64518 8.65446 9.61144 8.6882C9.5777 8.72194 9.55875 8.7677 9.55875 8.81541V27.5257C9.55875 27.625 9.63934 27.7056 9.73865 27.7056H15.4957C15.5434 27.7056 15.5891 27.6866 15.6229 27.6529C15.6566 27.6192 15.6756 27.5734 15.6756 27.5257V17.4509C15.6756 16.7352 15.9599 16.0488 16.466 15.5427C16.972 15.0366 17.6584 14.7523 18.3742 14.7523C19.0899 14.7523 19.7763 15.0366 20.2824 15.5427C20.7884 16.0488 21.0728 16.7352 21.0728 17.4509V27.5257C21.0728 27.625 21.1534 27.7056 21.2527 27.7056H27.0097C27.0574 27.7056 27.1031 27.6866 27.1369 27.6529C27.1706 27.6192 27.1896 27.5734 27.1896 27.5257V15.1193C27.1896 11.6263 24.1528 8.89457 20.677 9.20977C19.6015 9.30767 18.5481 9.57381 17.5552 9.99848L15.6756 10.8045V8.81541C15.6756 8.7677 15.6566 8.72194 15.6229 8.6882C15.5891 8.65446 15.5434 8.63551 15.4957 8.63551H9.73865Z" fill="#427EC0"/>
</svg>
