<svg width="29" height="28" viewBox="0 0 29 28" fill="none" xmlns="http://www.w3.org/2000/svg">
<g clip-path="url(#clip0_1_716)">
<path d="M0.382813 24.8496C3.49984 25.1912 6.28028 24.265 8.81944 21.9236C7.09821 21.8006 5.71479 21.0019 4.61226 19.4941C4.07523 18.7561 3.59512 17.7008 3.48994 17.022C4.31157 17.1435 5.12579 17.1739 5.96475 16.8823C2.83659 15.9151 1.37274 12.5563 1.45441 9.91271C1.8677 10.101 2.25624 10.3257 2.66954 10.4654C3.0833 10.5923 3.50589 10.6711 3.93169 10.7008C2.56683 9.41467 1.7353 7.7702 1.52865 5.70057C1.36145 4.1777 1.62341 2.63044 2.27109 1.31532C5.38317 5.80534 9.31688 8.28647 14.1415 8.68278C14.003 7.78452 13.9829 6.86477 14.0821 5.9587C14.3655 3.34092 16.1127 0.911414 18.2014 0.264559C20.338 -0.401529 22.2131 0.190156 23.8267 2.03961C23.8756 2.08756 23.9321 2.12267 23.9925 2.14279C24.053 2.1629 24.1161 2.16758 24.1781 2.15653C25.2895 1.87912 26.3587 1.39037 27.3471 0.707943C27.4176 0.659353 27.4919 0.618355 27.6156 0.542433C27.1776 2.19146 26.3584 3.40165 25.2497 4.35371C26.3103 4.20934 27.3475 3.8721 28.3271 3.35306L28.3878 3.43809C27.9237 4.10317 27.4832 4.80469 26.9895 5.42725C26.5985 5.9253 26.1344 6.33831 25.7187 6.80751C25.618 6.92199 25.5558 7.07849 25.5442 7.24634C25.5368 14.5348 23.1931 20.3763 18.3673 24.64C16.3293 26.4379 14.0017 27.4112 11.512 27.8121C9.18595 28.2034 6.81896 27.9965 4.56153 27.2047C3.12784 26.6973 1.75947 25.9449 0.496654 24.9695C0.456531 24.9328 0.418496 24.8927 0.382813 24.8496Z" fill="#427EC0"/>
</g>
<defs>
<clipPath id="clip0_1_716">
<rect width="28" height="28" fill="white" transform="translate(0.382812)"/>
</clipPath>
</defs>
</svg>
